<svg width="30" height="30" viewBox="0 0 52 52" fill="none" xmlns="http://www.w3.org/2000/svg">
<circle cx="26" cy="26" r="26" fill="#197BBD"/>
<path d="M45.8616 36.9325H34.5785C33.9478 36.9325 33.4366 36.4213 33.4366 35.7907V17.1418C33.4366 16.5112 33.9478 16 34.5785 16H40.2192C40.5283 16 40.8252 16.1247 41.0395 16.3478C41.2556 16.5692 41.3698 16.8713 41.3592 17.1805C41.3575 17.2753 41.036 26.7772 41.3557 30.2677C41.6913 33.9356 45.8581 34.6313 46.0338 34.6594C46.6222 34.7525 47.0438 35.283 46.9964 35.8768C46.9507 36.4723 46.4571 36.9325 45.8616 36.9325ZM35.7186 34.6489H41.0799C40.0488 33.6528 39.2477 32.2896 39.0808 30.4768C38.8156 27.5659 38.9649 20.9872 39.0404 18.2837H35.7186V34.6489Z" fill="#FDFDFD"/>
<path d="M34.5785 34.6489H17.0557V36.9325H34.5785V34.6489Z" fill="#FDFDFD"/>
<path d="M34.5784 30.5856H26.0023V32.8693H34.5784V30.5856Z" fill="#FDFDFD"/>
<path d="M17.4263 36.9322H6.14146C5.54419 36.9322 5.04706 36.4719 5.00314 35.8747C4.95922 35.2791 5.38082 34.7486 5.97282 34.6608C6.14673 34.6327 10.3118 33.937 10.6473 30.2691C10.967 26.7786 10.6473 17.2767 10.6438 17.1819C10.6315 16.8727 10.7475 16.5723 10.9635 16.3492C11.1796 16.1261 11.4747 16.0014 11.7839 16.0014H17.4263C18.057 16.0014 18.5682 16.5126 18.5682 17.1432V35.7903C18.5682 36.421 18.057 36.9322 17.4263 36.9322ZM10.9214 34.6485H16.2845V18.2833H12.9609C13.0364 20.9868 13.1875 27.5656 12.9205 30.4764C12.7553 32.2893 11.9543 33.6507 10.9214 34.6485Z" fill="#FDFDFD"/>
<path d="M26.0022 30.5856H17.4261V32.8693H26.0022V30.5856Z" fill="#FDFDFD"/>
<path d="M26.0024 20.7097L25.9937 18.426C26.2835 18.4225 26.7771 18.3136 26.9475 18.1239C26.9721 18.0975 27.0283 18.0343 27.009 17.8094C26.9598 17.2631 27.3059 16.7589 27.8346 16.6079C28.3616 16.4568 28.922 16.7027 29.168 17.1946C29.5404 17.9377 29.9725 18.3189 30.1359 18.3698C30.1271 18.3329 30.4521 18.0343 30.7648 16.8485C30.8913 16.3742 31.3058 16.0334 31.7959 16.0018C32.2755 15.9807 32.741 16.2565 32.9272 16.7133C33.0801 17.0927 33.261 17.365 33.4138 17.5424C33.4261 17.4352 33.4349 17.3053 33.4349 17.1419H35.7186C35.7186 19.4484 34.5153 19.9315 33.9971 20.0334C33.3611 20.1598 32.7024 19.9438 32.1227 19.4624C31.6449 20.1757 31.0494 20.5727 30.3432 20.6447C29.6756 20.7202 28.987 20.4532 28.3722 19.9122C27.4447 20.6851 26.157 20.7097 26.0024 20.7097Z" fill="#FDFDFD"/>
<path d="M26.0026 20.7097C25.8462 20.7097 24.5604 20.6851 23.6311 19.9121C23.018 20.4514 22.3364 20.7132 21.6601 20.6447C20.9539 20.5744 20.3584 20.1774 19.8806 19.4624C19.2991 19.9438 18.6474 20.1563 18.0045 20.0333C17.488 19.9315 16.2847 19.4484 16.2847 17.1419H18.5683C18.5683 17.3035 18.5771 17.4352 18.5894 17.5406C18.7423 17.365 18.9214 17.0927 19.076 16.7132C19.2605 16.2565 19.7225 15.9842 20.2073 16.0018C20.6974 16.0334 21.1138 16.3742 21.2385 16.8485C21.5828 18.1555 21.9429 18.3856 21.9464 18.3873C22.0044 18.3417 22.4594 17.9499 22.8371 17.1946C23.083 16.7044 23.6416 16.4568 24.1704 16.6078C24.6991 16.7571 25.0452 17.2631 24.996 17.8094C24.9749 18.0342 25.0329 18.0975 25.0575 18.1238C25.2297 18.3136 25.7215 18.4225 26.0114 18.426L26.0026 20.7097Z" fill="#FDFDFD"/>
<path d="M26.0024 25.0907L25.9937 22.8071C26.2835 22.8035 26.7771 22.6946 26.9475 22.5049C26.9721 22.4786 27.0283 22.4153 27.009 22.1905C26.9598 21.6441 27.3059 21.14 27.8346 20.9889C28.3616 20.8378 28.922 21.0855 29.168 21.5756C29.5404 22.3187 29.9725 22.6999 30.1359 22.7508C30.1271 22.7139 30.4521 22.4153 30.7648 21.2296C30.8913 20.7553 31.3058 20.4145 31.7959 20.3828C32.2755 20.3582 32.741 20.6393 32.9272 21.0943C33.0801 21.4737 33.261 21.746 33.4138 21.9234C33.4261 21.8163 33.4349 21.6863 33.4349 21.5229H35.7186C35.7186 23.8294 34.5153 24.3125 33.9971 24.4144C33.3611 24.5409 32.7024 24.3248 32.1227 23.8435C31.6449 24.5567 31.0494 24.9537 30.3432 25.0257C29.6756 25.0995 28.987 24.8343 28.3722 24.2932C27.4447 25.0679 26.157 25.0907 26.0024 25.0907Z" fill="#FDFDFD"/>
<path d="M26.0024 25.0907C25.8461 25.0907 24.5602 25.0661 23.6309 24.2931C23.0178 24.8324 22.3362 25.0959 21.6599 25.0257C20.9537 24.9536 20.3582 24.5566 19.8804 23.8434C19.299 24.323 18.6472 24.5373 18.006 24.4143C17.4896 24.3125 16.2863 23.8294 16.2863 21.5229H18.5699C18.5699 21.6845 18.5787 21.8162 18.591 21.9216C18.7421 21.746 18.9213 21.4737 19.0759 21.0942C19.2603 20.6392 19.7223 20.3617 20.2072 20.3828C20.6973 20.4162 21.1118 20.7569 21.2383 21.2312C21.5826 22.5365 21.9427 22.7683 21.9463 22.7701C22.0042 22.7244 22.4592 22.3327 22.8369 21.5773C23.0828 21.0872 23.6414 20.8395 24.1702 20.9906C24.699 21.1399 25.045 21.6458 24.9958 22.1921C24.9748 22.417 25.0327 22.4802 25.0573 22.5066C25.2295 22.6963 25.7213 22.8052 26.0112 22.8087L26.0024 25.0907Z" fill="#FDFDFD"/>
<path d="M26.0024 29.472L25.9937 27.1883C26.2835 27.1848 26.7771 27.0758 26.9475 26.8861C26.9721 26.8598 27.0283 26.7965 27.009 26.5717C26.9598 26.0254 27.3059 25.5212 27.8346 25.3701C28.3616 25.219 28.922 25.4667 29.168 25.9568C29.5404 26.7017 29.9725 27.0811 30.1359 27.1321C30.1271 27.0952 30.4521 26.7965 30.7648 25.6108C30.8913 25.1365 31.3058 24.7957 31.7959 24.7641C32.2755 24.736 32.741 25.0188 32.9272 25.4755C33.0801 25.855 33.261 26.1272 33.4138 26.3047C33.4261 26.1975 33.4349 26.0675 33.4349 25.9041H35.7186C35.7186 28.2107 34.5153 28.6937 33.9971 28.7956C33.3611 28.9204 32.7024 28.706 32.1227 28.2247C31.6449 28.9379 31.0494 29.3349 30.3449 29.407C29.6686 29.4807 28.987 29.2155 28.3739 28.6744C27.4447 29.4491 26.157 29.472 26.0024 29.472Z" fill="#FDFDFD"/>
<path d="M26.0024 29.4718C25.8461 29.4718 24.5584 29.4472 23.6309 28.6742C23.0178 29.2153 22.3362 29.4788 21.6599 29.4068C20.9537 29.3347 20.36 28.9377 19.8804 28.2245C19.3007 28.7041 18.6472 28.9219 18.006 28.7954C17.4896 28.6936 16.2863 28.2105 16.2863 25.904H18.5699C18.5699 26.0656 18.5787 26.1973 18.591 26.3027C18.7438 26.1253 18.923 25.8548 19.0776 25.4753C19.2621 25.0204 19.7241 24.7393 20.2089 24.7639C20.699 24.7955 21.1154 25.1363 21.2401 25.6106C21.5861 26.9158 21.9445 27.1477 21.948 27.1494C22.006 27.1038 22.461 26.712 22.8386 25.9567C23.0846 25.4666 23.6432 25.2189 24.172 25.3699C24.7007 25.5193 25.0468 26.0252 24.9976 26.5715C24.9765 26.7964 25.0345 26.8596 25.0591 26.8859C25.2312 27.0757 25.7231 27.1846 26.013 27.1881L26.0024 29.4718Z" fill="#FDFDFD"/>
</svg>
